<svg width="168" height="135" viewBox="0 0 168 135" fill="none" xmlns="http://www.w3.org/2000/svg">
<path d="M45.418 111.186C45.4134 111.541 45.3815 111.901 45.3223 112.266C45.2676 112.626 45.181 112.975 45.0625 113.312C44.944 113.649 44.7913 113.964 44.6045 114.255C44.4222 114.547 44.2035 114.802 43.9482 115.021C43.693 115.24 43.3991 115.413 43.0664 115.54C42.7383 115.663 42.3691 115.725 41.959 115.725C41.5488 115.725 41.1774 115.663 40.8447 115.54C40.5166 115.413 40.2249 115.24 39.9697 115.021C39.7145 114.802 39.4935 114.547 39.3066 114.255C39.1198 113.959 38.9671 113.642 38.8486 113.305C38.7256 112.968 38.6344 112.619 38.5752 112.259C38.516 111.899 38.484 111.541 38.4795 111.186V110.051C38.484 109.696 38.5137 109.338 38.5684 108.978C38.6276 108.613 38.7188 108.262 38.8418 107.925C38.9603 107.588 39.1107 107.273 39.293 106.982C39.4798 106.686 39.7008 106.426 39.9561 106.203C40.2113 105.984 40.5029 105.813 40.8311 105.69C41.1637 105.562 41.5352 105.498 41.9453 105.498C42.3555 105.498 42.7269 105.562 43.0596 105.69C43.3923 105.813 43.6862 105.984 43.9414 106.203C44.1966 106.421 44.4154 106.679 44.5977 106.975C44.7845 107.267 44.9395 107.581 45.0625 107.918C45.181 108.256 45.2676 108.606 45.3223 108.971C45.3815 109.336 45.4134 109.696 45.418 110.051V111.186ZM44.167 110.037C44.1624 109.8 44.1465 109.554 44.1191 109.299C44.0918 109.039 44.0462 108.782 43.9824 108.527C43.9141 108.276 43.8252 108.037 43.7158 107.809C43.6064 107.577 43.4697 107.371 43.3057 107.194C43.1416 107.021 42.9479 106.884 42.7246 106.784C42.5013 106.679 42.2415 106.626 41.9453 106.626C41.6536 106.626 41.3962 106.679 41.1729 106.784C40.9495 106.888 40.7559 107.027 40.5918 107.201C40.4277 107.378 40.291 107.583 40.1816 107.816C40.0723 108.044 39.9857 108.283 39.9219 108.534C39.8535 108.789 39.8034 109.046 39.7715 109.306C39.7441 109.561 39.7282 109.805 39.7236 110.037V111.186C39.7282 111.418 39.7441 111.664 39.7715 111.924C39.8034 112.184 39.8535 112.439 39.9219 112.69C39.9902 112.945 40.0791 113.189 40.1885 113.421C40.2979 113.654 40.4346 113.856 40.5986 114.03C40.7627 114.207 40.9564 114.349 41.1797 114.453C41.403 114.558 41.6628 114.611 41.959 114.611C42.2552 114.611 42.515 114.558 42.7383 114.453C42.9661 114.349 43.1621 114.207 43.3262 114.03C43.4857 113.856 43.6178 113.656 43.7227 113.428C43.832 113.196 43.9209 112.952 43.9893 112.697C44.0531 112.446 44.0964 112.191 44.1191 111.931C44.1465 111.671 44.1624 111.423 44.167 111.186V110.037ZM47.3457 118.432V108.192H48.501L48.5625 108.998C48.6628 108.871 48.7721 108.757 48.8906 108.657C49.0091 108.552 49.1367 108.463 49.2734 108.39C49.4648 108.281 49.6768 108.199 49.9092 108.144C50.1462 108.085 50.3991 108.055 50.668 108.055C51.1419 108.055 51.5612 108.148 51.9258 108.335C52.2904 108.522 52.5957 108.782 52.8418 109.115C53.0879 109.447 53.2747 109.846 53.4023 110.311C53.5299 110.771 53.5938 111.277 53.5938 111.828V111.972C53.5938 112.501 53.5299 112.995 53.4023 113.455C53.2747 113.911 53.0879 114.308 52.8418 114.645C52.5957 114.982 52.2904 115.246 51.9258 115.438C51.5658 115.629 51.1533 115.725 50.6885 115.725C50.4059 115.725 50.1416 115.695 49.8955 115.636C49.654 115.577 49.4352 115.493 49.2393 115.383C49.1208 115.315 49.0091 115.24 48.9043 115.158C48.7995 115.071 48.7015 114.978 48.6104 114.877V118.432H47.3457ZM52.3291 111.828C52.3291 111.468 52.2881 111.127 52.2061 110.803C52.1286 110.475 52.0078 110.186 51.8438 109.935C51.6751 109.689 51.4632 109.493 51.208 109.347C50.9528 109.201 50.6475 109.128 50.292 109.128C50.096 109.128 49.9137 109.151 49.7451 109.197C49.5811 109.242 49.4329 109.308 49.3008 109.395C49.1549 109.481 49.0251 109.589 48.9111 109.716C48.7972 109.844 48.6969 109.985 48.6104 110.14V113.702C48.6878 113.838 48.7767 113.966 48.877 114.084C48.9772 114.203 49.0911 114.303 49.2188 114.385C49.3646 114.481 49.5264 114.556 49.7041 114.611C49.8864 114.665 50.0869 114.693 50.3057 114.693C50.6566 114.693 50.9596 114.62 51.2148 114.474C51.4701 114.324 51.6797 114.123 51.8438 113.872C52.0078 113.622 52.1286 113.332 52.2061 113.004C52.2881 112.676 52.3291 112.332 52.3291 111.972V111.828ZM59.0283 115.725C58.5088 115.725 58.0303 115.636 57.5928 115.458C57.1598 115.281 56.7884 115.032 56.4785 114.713C56.1686 114.394 55.9271 114.016 55.7539 113.578C55.5807 113.141 55.4941 112.665 55.4941 112.15V111.863C55.4941 111.266 55.5898 110.732 55.7812 110.263C55.9727 109.789 56.2279 109.388 56.5469 109.06C56.8613 108.736 57.2191 108.488 57.6201 108.315C58.0257 108.142 58.4404 108.055 58.8643 108.055C59.3975 108.055 59.8623 108.148 60.2588 108.335C60.6598 108.518 60.9925 108.771 61.2568 109.094C61.5212 109.422 61.7171 109.807 61.8447 110.249C61.9769 110.691 62.043 111.17 62.043 111.685V112.252H56.7588V112.3C56.7907 112.66 56.8613 112.977 56.9707 113.25C57.0846 113.524 57.2396 113.765 57.4355 113.975C57.6361 114.198 57.8776 114.374 58.1602 114.501C58.4427 114.629 58.7549 114.693 59.0967 114.693C59.5479 114.693 59.9489 114.602 60.2998 114.419C60.6507 114.237 60.9424 113.995 61.1748 113.695L61.9473 114.296C61.7012 114.67 61.332 115.003 60.8398 115.294C60.3522 115.581 59.7484 115.725 59.0283 115.725ZM58.8643 109.094C58.609 109.094 58.3675 109.142 58.1396 109.238C57.9118 109.329 57.7067 109.463 57.5244 109.641C57.3421 109.823 57.1872 110.047 57.0596 110.311C56.9365 110.571 56.8499 110.871 56.7998 111.213H60.7783V111.152C60.7783 110.924 60.735 110.68 60.6484 110.42C60.5618 110.156 60.4411 109.928 60.2861 109.737C60.1312 109.545 59.9352 109.39 59.6982 109.272C59.4658 109.153 59.1878 109.094 58.8643 109.094ZM64.1689 115.588V108.192H65.3037L65.3926 109.286C65.502 109.131 65.6204 108.989 65.748 108.862C65.8802 108.73 66.0192 108.616 66.165 108.52C66.3838 108.374 66.6208 108.262 66.876 108.185C67.1357 108.103 67.4092 108.06 67.6963 108.055C68.0837 108.055 68.4346 108.11 68.749 108.219C69.068 108.328 69.3392 108.499 69.5625 108.732C69.7858 108.964 69.9567 109.26 70.0752 109.62C70.1982 109.976 70.2598 110.4 70.2598 110.892V115.588H68.9951V110.919C68.9951 110.591 68.9587 110.313 68.8857 110.085C68.8128 109.857 68.7057 109.673 68.5645 109.532C68.4186 109.39 68.2409 109.288 68.0312 109.224C67.8262 109.16 67.5892 109.128 67.3203 109.128C67.0879 109.128 66.8714 109.162 66.6709 109.231C66.4704 109.295 66.2858 109.384 66.1172 109.497C65.9805 109.598 65.8529 109.714 65.7344 109.846C65.6204 109.978 65.5202 110.124 65.4336 110.284V115.588H64.1689ZM81.5049 115.588L80.2949 105.635H81.498L82.2158 112.498L82.2568 112.895L82.332 112.485L83.5352 105.635H84.6357L85.8457 112.492L85.9209 112.895L85.9619 112.485L86.6797 105.635H87.876L86.666 115.588H85.374L84.1641 108.506L84.0957 108.089L84.0205 108.513L82.8037 115.588H81.5049ZM94.2539 115.588C94.2038 115.493 94.1628 115.374 94.1309 115.233C94.1035 115.087 94.083 114.937 94.0693 114.782C93.9417 114.909 93.7982 115.03 93.6387 115.144C93.4837 115.258 93.3128 115.358 93.126 115.445C92.9346 115.531 92.7318 115.6 92.5176 115.65C92.3034 115.7 92.0755 115.725 91.834 115.725C91.4421 115.725 91.0866 115.668 90.7676 115.554C90.4531 115.44 90.1865 115.285 89.9678 115.089C89.7445 114.898 89.5713 114.67 89.4482 114.406C89.3298 114.137 89.2705 113.847 89.2705 113.537C89.2705 113.132 89.3503 112.776 89.5098 112.471C89.6738 112.166 89.904 111.911 90.2002 111.705C90.4964 111.505 90.8519 111.355 91.2666 111.254C91.6859 111.154 92.153 111.104 92.668 111.104H94.0488V110.523C94.0488 110.3 94.0078 110.099 93.9258 109.921C93.8438 109.744 93.7275 109.591 93.5771 109.463C93.4268 109.34 93.2422 109.245 93.0234 109.176C92.8092 109.108 92.5677 109.074 92.2988 109.074C92.0482 109.074 91.8226 109.106 91.6221 109.169C91.4261 109.233 91.2598 109.317 91.123 109.422C90.9863 109.527 90.8792 109.652 90.8018 109.798C90.7288 109.939 90.6924 110.088 90.6924 110.243H89.4209C89.4255 109.974 89.4938 109.709 89.626 109.45C89.7627 109.19 89.9587 108.955 90.2139 108.745C90.4645 108.54 90.7699 108.374 91.1299 108.246C91.4945 108.119 91.9069 108.055 92.3672 108.055C92.7865 108.055 93.1761 108.107 93.5361 108.212C93.8962 108.313 94.2083 108.465 94.4727 108.67C94.7324 108.88 94.9375 109.14 95.0879 109.45C95.2383 109.759 95.3135 110.122 95.3135 110.536V113.975C95.3135 114.221 95.3363 114.483 95.3818 114.761C95.4274 115.035 95.4912 115.274 95.5732 115.479V115.588H94.2539ZM92.0186 114.624C92.2646 114.624 92.4948 114.592 92.709 114.529C92.9232 114.465 93.1191 114.381 93.2969 114.276C93.4701 114.171 93.6204 114.052 93.748 113.92C93.8757 113.784 93.9759 113.642 94.0488 113.496V111.999H92.873C92.4355 111.999 92.0527 112.038 91.7246 112.116C91.401 112.189 91.1436 112.302 90.9521 112.457C90.8154 112.567 90.7106 112.697 90.6377 112.847C90.5693 112.997 90.5352 113.168 90.5352 113.36C90.5352 113.542 90.5648 113.711 90.624 113.866C90.6878 114.021 90.7812 114.153 90.9043 114.262C91.0273 114.376 91.1823 114.465 91.3691 114.529C91.556 114.592 91.7725 114.624 92.0186 114.624ZM100.796 106.401V108.192H103.612V109.169H100.796V113.189C100.796 113.476 100.832 113.713 100.905 113.9C100.978 114.087 101.078 114.235 101.206 114.344C101.334 114.458 101.479 114.538 101.644 114.583C101.812 114.629 101.99 114.652 102.177 114.652C102.313 114.652 102.455 114.645 102.601 114.631C102.746 114.613 102.89 114.592 103.031 114.57C103.168 114.547 103.296 114.524 103.414 114.501C103.537 114.474 103.637 114.451 103.715 114.433L103.893 115.328C103.788 115.392 103.66 115.449 103.51 115.499C103.359 115.545 103.195 115.584 103.018 115.616C102.84 115.652 102.651 115.679 102.45 115.698C102.254 115.716 102.058 115.725 101.862 115.725C101.534 115.725 101.227 115.679 100.939 115.588C100.657 115.493 100.411 115.342 100.201 115.137C99.9915 114.937 99.8252 114.677 99.7021 114.358C99.5837 114.034 99.5244 113.645 99.5244 113.189V109.169H97.583V108.192H99.5244V106.401H100.796ZM109.478 115.725C108.958 115.725 108.479 115.636 108.042 115.458C107.609 115.281 107.238 115.032 106.928 114.713C106.618 114.394 106.376 114.016 106.203 113.578C106.03 113.141 105.943 112.665 105.943 112.15V111.863C105.943 111.266 106.039 110.732 106.23 110.263C106.422 109.789 106.677 109.388 106.996 109.06C107.311 108.736 107.668 108.488 108.069 108.315C108.475 108.142 108.89 108.055 109.313 108.055C109.847 108.055 110.312 108.148 110.708 108.335C111.109 108.518 111.442 108.771 111.706 109.094C111.97 109.422 112.166 109.807 112.294 110.249C112.426 110.691 112.492 111.17 112.492 111.685V112.252H107.208V112.3C107.24 112.66 107.311 112.977 107.42 113.25C107.534 113.524 107.689 113.765 107.885 113.975C108.085 114.198 108.327 114.374 108.609 114.501C108.892 114.629 109.204 114.693 109.546 114.693C109.997 114.693 110.398 114.602 110.749 114.419C111.1 114.237 111.392 113.995 111.624 113.695L112.396 114.296C112.15 114.67 111.781 115.003 111.289 115.294C110.801 115.581 110.198 115.725 109.478 115.725ZM109.313 109.094C109.058 109.094 108.817 109.142 108.589 109.238C108.361 109.329 108.156 109.463 107.974 109.641C107.791 109.823 107.636 110.047 107.509 110.311C107.386 110.571 107.299 110.871 107.249 111.213H111.228V111.152C111.228 110.924 111.184 110.68 111.098 110.42C111.011 110.156 110.89 109.928 110.735 109.737C110.58 109.545 110.384 109.39 110.147 109.272C109.915 109.153 109.637 109.094 109.313 109.094ZM119.465 108.055C119.697 108.055 119.939 108.071 120.189 108.103C120.445 108.135 120.636 108.178 120.764 108.233L120.593 109.47C120.347 109.415 120.112 109.377 119.889 109.354C119.67 109.327 119.44 109.313 119.198 109.313C118.888 109.313 118.608 109.352 118.357 109.429C118.107 109.502 117.888 109.611 117.701 109.757C117.533 109.885 117.384 110.042 117.257 110.229C117.134 110.411 117.031 110.616 116.949 110.844V115.588H115.678V108.192H116.881L116.936 109.183L116.942 109.368C117.243 108.962 117.603 108.643 118.022 108.411C118.446 108.174 118.927 108.055 119.465 108.055ZM6.69922 120.635L8.31934 125.612L10.0693 120.635H11.6416V130.588H10.4111V126.617L10.5137 122.46L8.6748 127.82H7.9502L6.26172 122.604L6.36426 126.617V130.588H5.13379V120.635H6.69922ZM13.3643 126.822C13.3643 126.288 13.4417 125.794 13.5967 125.338C13.7516 124.878 13.9749 124.479 14.2666 124.142C14.5537 123.805 14.9046 123.54 15.3193 123.349C15.734 123.153 16.2012 123.055 16.7207 123.055C17.2448 123.055 17.7142 123.153 18.1289 123.349C18.5482 123.54 18.9036 123.805 19.1953 124.142C19.4824 124.479 19.7035 124.878 19.8584 125.338C20.0133 125.794 20.0908 126.288 20.0908 126.822V126.972C20.0908 127.505 20.0133 128 19.8584 128.455C19.7035 128.911 19.4824 129.308 19.1953 129.645C18.9036 129.982 18.5505 130.246 18.1357 130.438C17.721 130.629 17.2539 130.725 16.7344 130.725C16.2103 130.725 15.7386 130.629 15.3193 130.438C14.9046 130.246 14.5537 129.982 14.2666 129.645C13.9749 129.308 13.7516 128.911 13.5967 128.455C13.4417 128 13.3643 127.505 13.3643 126.972V126.822ZM14.6289 126.972C14.6289 127.337 14.6722 127.685 14.7588 128.018C14.8454 128.346 14.9775 128.635 15.1553 128.886C15.3285 129.137 15.5472 129.335 15.8115 129.481C16.0758 129.627 16.3835 129.7 16.7344 129.7C17.0807 129.7 17.3838 129.627 17.6436 129.481C17.9079 129.335 18.1289 129.137 18.3066 128.886C18.4798 128.635 18.6097 128.346 18.6963 128.018C18.7829 127.685 18.8262 127.337 18.8262 126.972V126.822C18.8262 126.462 18.7806 126.118 18.6895 125.789C18.6029 125.457 18.473 125.165 18.2998 124.914C18.1221 124.664 17.901 124.466 17.6367 124.32C17.377 124.169 17.0716 124.094 16.7207 124.094C16.3698 124.094 16.0645 124.169 15.8047 124.32C15.5449 124.466 15.3285 124.664 15.1553 124.914C14.9775 125.165 14.8454 125.457 14.7588 125.789C14.6722 126.118 14.6289 126.462 14.6289 126.822V126.972ZM22.1279 130.588V123.192H23.2627L23.3516 124.286C23.4609 124.131 23.5794 123.989 23.707 123.862C23.8392 123.73 23.9782 123.616 24.124 123.52C24.3428 123.374 24.5798 123.262 24.835 123.185C25.0947 123.103 25.3682 123.06 25.6553 123.055C26.0426 123.055 26.3936 123.11 26.708 123.219C27.027 123.328 27.2982 123.499 27.5215 123.732C27.7448 123.964 27.9157 124.26 28.0342 124.62C28.1572 124.976 28.2188 125.4 28.2188 125.892V130.588H26.9541V125.919C26.9541 125.591 26.9176 125.313 26.8447 125.085C26.7718 124.857 26.6647 124.673 26.5234 124.532C26.3776 124.39 26.1999 124.288 25.9902 124.224C25.7852 124.16 25.5482 124.128 25.2793 124.128C25.0469 124.128 24.8304 124.162 24.6299 124.231C24.4294 124.295 24.2448 124.384 24.0762 124.497C23.9395 124.598 23.8118 124.714 23.6934 124.846C23.5794 124.978 23.4792 125.124 23.3926 125.284V130.588H22.1279ZM30.7344 123.192H34.5146V129.495H36.9277V130.588H30.7344V129.495H33.25V124.292H30.7344V123.192ZM33.0859 121.25C33.0859 121.141 33.1019 121.038 33.1338 120.943C33.1702 120.847 33.2249 120.765 33.2979 120.697C33.3571 120.637 33.4323 120.592 33.5234 120.56C33.6191 120.523 33.7262 120.505 33.8447 120.505C33.9632 120.505 34.068 120.523 34.1592 120.56C34.2503 120.592 34.3255 120.637 34.3848 120.697C34.4577 120.76 34.5124 120.84 34.5488 120.936C34.5853 121.032 34.6035 121.136 34.6035 121.25C34.6035 121.455 34.5397 121.626 34.4121 121.763C34.2845 121.9 34.0954 121.968 33.8447 121.968C33.5895 121.968 33.3981 121.9 33.2705 121.763C33.1475 121.626 33.0859 121.455 33.0859 121.25ZM41.9385 121.401V123.192H44.7549V124.169H41.9385V128.189C41.9385 128.476 41.9749 128.713 42.0479 128.9C42.1208 129.087 42.221 129.235 42.3486 129.344C42.4762 129.458 42.6221 129.538 42.7861 129.583C42.9548 129.629 43.1325 129.652 43.3193 129.652C43.4561 129.652 43.5973 129.645 43.7432 129.631C43.889 129.613 44.0326 129.592 44.1738 129.57C44.3105 129.547 44.4382 129.524 44.5566 129.501C44.6797 129.474 44.7799 129.451 44.8574 129.433L45.0352 130.328C44.9303 130.392 44.8027 130.449 44.6523 130.499C44.502 130.545 44.3379 130.584 44.1602 130.616C43.9824 130.652 43.7933 130.679 43.5928 130.698C43.3968 130.716 43.2008 130.725 43.0049 130.725C42.6768 130.725 42.3691 130.679 42.082 130.588C41.7995 130.493 41.5534 130.342 41.3438 130.137C41.1341 129.937 40.9678 129.677 40.8447 129.358C40.7262 129.034 40.667 128.645 40.667 128.189V124.169H38.7256V123.192H40.667V121.401H41.9385ZM46.9971 126.822C46.9971 126.288 47.0745 125.794 47.2295 125.338C47.3844 124.878 47.6077 124.479 47.8994 124.142C48.1865 123.805 48.5374 123.54 48.9521 123.349C49.3669 123.153 49.834 123.055 50.3535 123.055C50.8776 123.055 51.347 123.153 51.7617 123.349C52.181 123.54 52.5365 123.805 52.8281 124.142C53.1152 124.479 53.3363 124.878 53.4912 125.338C53.6462 125.794 53.7236 126.288 53.7236 126.822V126.972C53.7236 127.505 53.6462 128 53.4912 128.455C53.3363 128.911 53.1152 129.308 52.8281 129.645C52.5365 129.982 52.1833 130.246 51.7686 130.438C51.3538 130.629 50.8867 130.725 50.3672 130.725C49.8431 130.725 49.3714 130.629 48.9521 130.438C48.5374 130.246 48.1865 129.982 47.8994 129.645C47.6077 129.308 47.3844 128.911 47.2295 128.455C47.0745 128 46.9971 127.505 46.9971 126.972V126.822ZM48.2617 126.972C48.2617 127.337 48.305 127.685 48.3916 128.018C48.4782 128.346 48.6104 128.635 48.7881 128.886C48.9613 129.137 49.18 129.335 49.4443 129.481C49.7087 129.627 50.0163 129.7 50.3672 129.7C50.7135 129.7 51.0166 129.627 51.2764 129.481C51.5407 129.335 51.7617 129.137 51.9395 128.886C52.1126 128.635 52.2425 128.346 52.3291 128.018C52.4157 127.685 52.459 127.337 52.459 126.972V126.822C52.459 126.462 52.4134 126.118 52.3223 125.789C52.2357 125.457 52.1058 125.165 51.9326 124.914C51.7549 124.664 51.5339 124.466 51.2695 124.32C51.0098 124.169 50.7044 124.094 50.3535 124.094C50.0026 124.094 49.6973 124.169 49.4375 124.32C49.1777 124.466 48.9613 124.664 48.7881 124.914C48.6104 125.165 48.4782 125.457 48.3916 125.789C48.305 126.118 48.2617 126.462 48.2617 126.822V126.972ZM60.6074 123.055C60.8398 123.055 61.0814 123.071 61.332 123.103C61.5872 123.135 61.7786 123.178 61.9062 123.233L61.7354 124.47C61.4893 124.415 61.2546 124.377 61.0312 124.354C60.8125 124.327 60.5824 124.313 60.3408 124.313C60.0309 124.313 59.7507 124.352 59.5 124.429C59.2493 124.502 59.0306 124.611 58.8438 124.757C58.6751 124.885 58.527 125.042 58.3994 125.229C58.2764 125.411 58.1738 125.616 58.0918 125.844V130.588H56.8203V123.192H58.0234L58.0781 124.183L58.085 124.368C58.3857 123.962 58.7458 123.643 59.165 123.411C59.5889 123.174 60.0697 123.055 60.6074 123.055ZM64.3672 123.192H68.1475V129.495H70.5605V130.588H64.3672V129.495H66.8828V124.292H64.3672V123.192ZM66.7188 121.25C66.7188 121.141 66.7347 121.038 66.7666 120.943C66.8031 120.847 66.8577 120.765 66.9307 120.697C66.9899 120.637 67.0651 120.592 67.1562 120.56C67.252 120.523 67.359 120.505 67.4775 120.505C67.596 120.505 67.7008 120.523 67.792 120.56C67.8831 120.592 67.9583 120.637 68.0176 120.697C68.0905 120.76 68.1452 120.84 68.1816 120.936C68.2181 121.032 68.2363 121.136 68.2363 121.25C68.2363 121.455 68.1725 121.626 68.0449 121.763C67.9173 121.9 67.7282 121.968 67.4775 121.968C67.2223 121.968 67.0309 121.9 66.9033 121.763C66.7803 121.626 66.7188 121.455 66.7188 121.25ZM72.5771 130.588V123.192H73.7119L73.8008 124.286C73.9102 124.131 74.0286 123.989 74.1562 123.862C74.2884 123.73 74.4274 123.616 74.5732 123.52C74.792 123.374 75.029 123.262 75.2842 123.185C75.5439 123.103 75.8174 123.06 76.1045 123.055C76.4919 123.055 76.8428 123.11 77.1572 123.219C77.4762 123.328 77.7474 123.499 77.9707 123.732C78.194 123.964 78.3649 124.26 78.4834 124.62C78.6064 124.976 78.668 125.4 78.668 125.892V130.588H77.4033V125.919C77.4033 125.591 77.3669 125.313 77.2939 125.085C77.221 124.857 77.1139 124.673 76.9727 124.532C76.8268 124.39 76.6491 124.288 76.4395 124.224C76.2344 124.16 75.9974 124.128 75.7285 124.128C75.4961 124.128 75.2796 124.162 75.0791 124.231C74.8786 124.295 74.694 124.384 74.5254 124.497C74.3887 124.598 74.2611 124.714 74.1426 124.846C74.0286 124.978 73.9284 125.124 73.8418 125.284V130.588H72.5771ZM80.7529 126.828C80.7529 126.277 80.819 125.771 80.9512 125.311C81.0879 124.846 81.2839 124.447 81.5391 124.115C81.7943 123.782 82.1042 123.522 82.4688 123.335C82.8333 123.148 83.2458 123.055 83.7061 123.055C84.0023 123.055 84.2734 123.089 84.5195 123.158C84.7702 123.226 84.9958 123.326 85.1963 123.458C85.3057 123.527 85.4082 123.606 85.5039 123.698C85.6042 123.789 85.6976 123.889 85.7842 123.998L85.8457 123.192H86.9941V130.431C86.9941 130.919 86.9167 131.352 86.7617 131.73C86.6113 132.108 86.3994 132.429 86.126 132.694C85.848 132.958 85.5176 133.159 85.1348 133.295C84.752 133.432 84.3281 133.5 83.8633 133.5C83.6719 133.5 83.4531 133.478 83.207 133.432C82.9609 133.391 82.7126 133.32 82.4619 133.22C82.2067 133.124 81.9606 132.995 81.7236 132.83C81.4912 132.666 81.2907 132.464 81.1221 132.222L81.7783 131.463C81.9333 131.65 82.0928 131.807 82.2568 131.935C82.4209 132.067 82.5872 132.172 82.7559 132.249C82.9245 132.327 83.0931 132.382 83.2617 132.413C83.4303 132.45 83.599 132.468 83.7676 132.468C84.0684 132.468 84.3395 132.425 84.5811 132.338C84.8226 132.252 85.0299 132.124 85.2031 131.955C85.3717 131.791 85.5016 131.586 85.5928 131.34C85.6839 131.094 85.7295 130.812 85.7295 130.493V129.857C85.6338 129.966 85.5312 130.066 85.4219 130.158C85.3171 130.249 85.2031 130.328 85.0801 130.397C84.8887 130.502 84.6768 130.581 84.4443 130.636C84.2119 130.695 83.9613 130.725 83.6924 130.725C83.2412 130.725 82.8333 130.629 82.4688 130.438C82.1042 130.246 81.7965 129.982 81.5459 129.645C81.2907 129.308 81.0947 128.911 80.958 128.455C80.8213 127.995 80.7529 127.501 80.7529 126.972V126.828ZM82.0176 126.972C82.0176 127.332 82.054 127.674 82.127 127.997C82.2044 128.321 82.3252 128.606 82.4893 128.852C82.6488 129.098 82.8538 129.294 83.1045 129.44C83.3551 129.581 83.6559 129.652 84.0068 129.652C84.2256 129.652 84.4215 129.627 84.5947 129.577C84.7725 129.522 84.932 129.447 85.0732 129.351C85.21 129.255 85.333 129.141 85.4424 129.009C85.5518 128.877 85.6475 128.731 85.7295 128.572V125.181C85.6475 125.026 85.5518 124.885 85.4424 124.757C85.333 124.63 85.2077 124.518 85.0664 124.422C84.9251 124.331 84.7679 124.26 84.5947 124.21C84.4215 124.156 84.2301 124.128 84.0205 124.128C83.665 124.128 83.3597 124.201 83.1045 124.347C82.8538 124.493 82.6488 124.689 82.4893 124.935C82.3252 125.186 82.2044 125.475 82.127 125.803C82.054 126.127 82.0176 126.468 82.0176 126.828V126.972ZM99.1826 126.596V130.588H97.918V120.635H101.145C101.591 120.644 102.013 120.715 102.409 120.847C102.81 120.979 103.161 121.171 103.462 121.421C103.763 121.672 104 121.982 104.173 122.351C104.351 122.72 104.439 123.144 104.439 123.622C104.439 124.101 104.351 124.525 104.173 124.894C104 125.259 103.763 125.566 103.462 125.817C103.161 126.067 102.81 126.259 102.409 126.391C102.013 126.523 101.591 126.592 101.145 126.596H99.1826ZM99.1826 125.557H101.145C101.436 125.552 101.705 125.507 101.951 125.42C102.197 125.329 102.411 125.202 102.594 125.037C102.776 124.873 102.917 124.675 103.018 124.443C103.122 124.206 103.175 123.937 103.175 123.636C103.175 123.335 103.122 123.064 103.018 122.823C102.917 122.581 102.778 122.376 102.601 122.207C102.418 122.039 102.202 121.909 101.951 121.818C101.705 121.727 101.436 121.679 101.145 121.674H99.1826V125.557ZM106.408 120.088H110.188V129.495H112.602V130.588H106.408V129.495H108.924V121.189H106.408V120.088ZM119.479 130.588C119.428 130.493 119.387 130.374 119.355 130.233C119.328 130.087 119.308 129.937 119.294 129.782C119.166 129.909 119.023 130.03 118.863 130.144C118.708 130.258 118.537 130.358 118.351 130.445C118.159 130.531 117.956 130.6 117.742 130.65C117.528 130.7 117.3 130.725 117.059 130.725C116.667 130.725 116.311 130.668 115.992 130.554C115.678 130.44 115.411 130.285 115.192 130.089C114.969 129.898 114.796 129.67 114.673 129.406C114.554 129.137 114.495 128.847 114.495 128.537C114.495 128.132 114.575 127.776 114.734 127.471C114.898 127.166 115.129 126.911 115.425 126.705C115.721 126.505 116.076 126.355 116.491 126.254C116.91 126.154 117.378 126.104 117.893 126.104H119.273V125.523C119.273 125.3 119.232 125.099 119.15 124.921C119.068 124.744 118.952 124.591 118.802 124.463C118.651 124.34 118.467 124.245 118.248 124.176C118.034 124.108 117.792 124.074 117.523 124.074C117.273 124.074 117.047 124.106 116.847 124.169C116.651 124.233 116.484 124.317 116.348 124.422C116.211 124.527 116.104 124.652 116.026 124.798C115.953 124.939 115.917 125.088 115.917 125.243H114.646C114.65 124.974 114.718 124.709 114.851 124.45C114.987 124.19 115.183 123.955 115.438 123.745C115.689 123.54 115.994 123.374 116.354 123.246C116.719 123.119 117.132 123.055 117.592 123.055C118.011 123.055 118.401 123.107 118.761 123.212C119.121 123.313 119.433 123.465 119.697 123.67C119.957 123.88 120.162 124.14 120.312 124.45C120.463 124.759 120.538 125.122 120.538 125.536V128.975C120.538 129.221 120.561 129.483 120.606 129.761C120.652 130.035 120.716 130.274 120.798 130.479V130.588H119.479ZM117.243 129.624C117.489 129.624 117.719 129.592 117.934 129.529C118.148 129.465 118.344 129.381 118.521 129.276C118.695 129.171 118.845 129.052 118.973 128.92C119.1 128.784 119.201 128.642 119.273 128.496V126.999H118.098C117.66 126.999 117.277 127.038 116.949 127.116C116.626 127.189 116.368 127.302 116.177 127.457C116.04 127.567 115.935 127.697 115.862 127.847C115.794 127.997 115.76 128.168 115.76 128.36C115.76 128.542 115.789 128.711 115.849 128.866C115.912 129.021 116.006 129.153 116.129 129.262C116.252 129.376 116.407 129.465 116.594 129.529C116.781 129.592 116.997 129.624 117.243 129.624ZM126.021 121.401V123.192H128.837V124.169H126.021V128.189C126.021 128.476 126.057 128.713 126.13 128.9C126.203 129.087 126.303 129.235 126.431 129.344C126.558 129.458 126.704 129.538 126.868 129.583C127.037 129.629 127.215 129.652 127.401 129.652C127.538 129.652 127.679 129.645 127.825 129.631C127.971 129.613 128.115 129.592 128.256 129.57C128.393 129.547 128.52 129.524 128.639 129.501C128.762 129.474 128.862 129.451 128.939 129.433L129.117 130.328C129.012 130.392 128.885 130.449 128.734 130.499C128.584 130.545 128.42 130.584 128.242 130.616C128.064 130.652 127.875 130.679 127.675 130.698C127.479 130.716 127.283 130.725 127.087 130.725C126.759 130.725 126.451 130.679 126.164 130.588C125.882 130.493 125.635 130.342 125.426 130.137C125.216 129.937 125.05 129.677 124.927 129.358C124.808 129.034 124.749 128.645 124.749 128.189V124.169H122.808V123.192H124.749V121.401H126.021ZM133.321 130.588V124.169H131.284V123.192H133.321V122.672C133.321 122.198 133.39 121.784 133.526 121.428C133.668 121.068 133.866 120.767 134.121 120.526C134.372 120.284 134.675 120.102 135.03 119.979C135.386 119.856 135.782 119.794 136.22 119.794C136.402 119.794 136.582 119.806 136.76 119.828C136.938 119.847 137.113 119.872 137.286 119.904C137.4 119.926 137.514 119.952 137.628 119.979C137.742 120.002 137.858 120.029 137.977 120.061L137.826 121.107C137.639 121.043 137.421 120.988 137.17 120.943C136.924 120.893 136.66 120.868 136.377 120.868C136.09 120.868 135.835 120.904 135.611 120.977C135.393 121.045 135.21 121.15 135.064 121.291C134.91 121.437 134.791 121.626 134.709 121.859C134.632 122.091 134.593 122.362 134.593 122.672V123.192H137.443V124.169H134.593V130.588H133.321ZM139.487 126.822C139.487 126.288 139.565 125.794 139.72 125.338C139.875 124.878 140.098 124.479 140.39 124.142C140.677 123.805 141.028 123.54 141.442 123.349C141.857 123.153 142.324 123.055 142.844 123.055C143.368 123.055 143.837 123.153 144.252 123.349C144.671 123.54 145.027 123.805 145.318 124.142C145.605 124.479 145.826 124.878 145.981 125.338C146.136 125.794 146.214 126.288 146.214 126.822V126.972C146.214 127.505 146.136 128 145.981 128.455C145.826 128.911 145.605 129.308 145.318 129.645C145.027 129.982 144.674 130.246 144.259 130.438C143.844 130.629 143.377 130.725 142.857 130.725C142.333 130.725 141.862 130.629 141.442 130.438C141.028 130.246 140.677 129.982 140.39 129.645C140.098 129.308 139.875 128.911 139.72 128.455C139.565 128 139.487 127.505 139.487 126.972V126.822ZM140.752 126.972C140.752 127.337 140.795 127.685 140.882 128.018C140.968 128.346 141.101 128.635 141.278 128.886C141.451 129.137 141.67 129.335 141.935 129.481C142.199 129.627 142.507 129.7 142.857 129.7C143.204 129.7 143.507 129.627 143.767 129.481C144.031 129.335 144.252 129.137 144.43 128.886C144.603 128.635 144.733 128.346 144.819 128.018C144.906 127.685 144.949 127.337 144.949 126.972V126.822C144.949 126.462 144.904 126.118 144.812 125.789C144.726 125.457 144.596 125.165 144.423 124.914C144.245 124.664 144.024 124.466 143.76 124.32C143.5 124.169 143.195 124.094 142.844 124.094C142.493 124.094 142.188 124.169 141.928 124.32C141.668 124.466 141.451 124.664 141.278 124.914C141.101 125.165 140.968 125.457 140.882 125.789C140.795 126.118 140.752 126.462 140.752 126.822V126.972ZM153.098 123.055C153.33 123.055 153.572 123.071 153.822 123.103C154.077 123.135 154.269 123.178 154.396 123.233L154.226 124.47C153.979 124.415 153.745 124.377 153.521 124.354C153.303 124.327 153.073 124.313 152.831 124.313C152.521 124.313 152.241 124.352 151.99 124.429C151.74 124.502 151.521 124.611 151.334 124.757C151.165 124.885 151.017 125.042 150.89 125.229C150.767 125.411 150.664 125.616 150.582 125.844V130.588H149.311V123.192H150.514L150.568 124.183L150.575 124.368C150.876 123.962 151.236 123.643 151.655 123.411C152.079 123.174 152.56 123.055 153.098 123.055ZM157.24 123.192L157.274 123.889C157.425 123.629 157.621 123.426 157.862 123.281C158.108 123.135 158.405 123.06 158.751 123.055C158.947 123.055 159.122 123.078 159.277 123.123C159.437 123.164 159.576 123.226 159.694 123.308C159.781 123.372 159.858 123.449 159.927 123.54C160 123.632 160.061 123.734 160.111 123.848C160.175 123.743 160.25 123.645 160.337 123.554C160.424 123.463 160.517 123.383 160.617 123.315C160.745 123.237 160.886 123.176 161.041 123.13C161.201 123.085 161.374 123.06 161.561 123.055C161.816 123.055 162.046 123.094 162.251 123.171C162.456 123.244 162.629 123.354 162.771 123.499C162.925 123.663 163.044 123.878 163.126 124.142C163.208 124.402 163.249 124.709 163.249 125.065V130.588H162.046V125.051C162.046 124.896 162.028 124.759 161.991 124.641C161.955 124.523 161.902 124.425 161.834 124.347C161.761 124.274 161.67 124.219 161.561 124.183C161.456 124.147 161.333 124.128 161.191 124.128C161.041 124.128 160.911 124.149 160.802 124.19C160.692 124.231 160.601 124.286 160.528 124.354C160.455 124.427 160.398 124.511 160.357 124.607C160.316 124.698 160.289 124.8 160.275 124.914C160.275 124.937 160.275 124.96 160.275 124.983C160.275 125.001 160.275 125.024 160.275 125.051V130.588H159.072V125.044C159.072 124.889 159.054 124.753 159.018 124.634C158.986 124.516 158.933 124.418 158.86 124.34C158.792 124.267 158.705 124.215 158.601 124.183C158.5 124.147 158.382 124.128 158.245 124.128C158.095 124.128 157.963 124.147 157.849 124.183C157.739 124.215 157.646 124.263 157.568 124.327C157.509 124.377 157.457 124.434 157.411 124.497C157.37 124.561 157.336 124.63 157.309 124.703V130.588H156.105V123.192H157.24Z" fill="black"/>
<path fill-rule="evenodd" clip-rule="evenodd" d="M83.5603 0.288436C83.0314 0.692299 81.2931 2.12743 81.0705 2.34422C80.9727 2.43933 80.6208 2.74504 80.2884 3.02363C79.3651 3.79758 77.7459 5.21549 76.6801 6.18328C76.1528 6.66222 75.138 7.57811 74.4249 8.21858C69.4538 12.6841 62.3484 20.1972 60.3256 23.1268C60.2326 23.2617 59.7215 23.9474 59.1901 24.6507C58.2737 25.8634 57.1992 27.3682 56.8292 27.9572C56.7361 28.1053 56.292 28.8102 55.8422 29.5235C55.3924 30.2366 55.0245 30.8403 55.0245 30.8648C55.0245 30.8894 54.7402 31.4098 54.3927 32.0214C51.8852 36.4341 50.5622 39.9579 49.5485 44.924C49.1354 46.9479 49.0047 48.5231 49.0001 51.5367C48.9949 54.8574 49.226 56.8147 50.0033 60.0349C50.6176 62.5793 51.9425 65.9794 53.0262 67.7925C53.2141 68.107 53.4254 68.4656 53.4957 68.5894C53.6451 68.8528 54.5224 70.1628 55.051 70.9123C55.7577 71.9137 57.3022 73.6414 58.3987 74.6567C58.6727 74.9103 58.9772 75.1963 59.0755 75.2923C59.3282 75.5392 60.9922 76.8728 61.3971 77.153C61.5832 77.2818 61.9893 77.5629 62.2995 77.7774C66.1669 80.453 71.6514 82.4085 76.9595 83.0045C79.1438 83.2497 82.7924 83.1765 85.041 82.8423C92.6654 81.7092 98.4243 77.9843 101.729 72.0481C102.715 70.276 104.336 65.844 104.175 65.3605C104.132 65.2303 103.384 66.3323 102.926 67.2019C101.58 69.756 98.0042 73.3314 94.8179 75.308C92.2701 76.8884 88.4091 78.3401 85.2878 78.8912C81.0781 79.6344 76.4045 79.373 72.3861 78.1696C66.2002 76.3169 61.389 72.9358 57.9537 68.0266C55.1305 63.9923 53.6144 59.8138 53.0509 54.5143C52.7844 52.0075 52.8383 50.5818 53.3276 47.2017C53.9668 42.7867 55.4552 38.5794 58.0456 33.8649C61.4833 27.6084 67.9032 19.7419 75.1575 12.8977C76.2121 11.9026 77.4556 10.7267 77.9208 10.2845C78.3861 9.84213 79.325 9.00705 80.0074 8.42872C80.6898 7.85028 81.6542 7.0125 82.1504 6.56711C83.654 5.21741 83.8647 5.04969 84.0567 5.04969C84.2341 5.04969 85.3963 6.01995 86.9457 7.46139C87.3498 7.83745 88.3131 8.72757 89.0864 9.43951C92.356 12.4498 95.2949 15.3626 96.9295 17.2129C98.0597 18.4923 99.1954 19.7542 99.3038 19.8512C99.4683 19.9984 101.037 21.8727 101.893 22.944C102.263 23.407 102.627 23.8629 102.702 23.9571C102.883 24.1829 103.442 24.9274 104.172 25.9165C104.973 27.0011 107.57 30.8468 108.019 31.6137C108.218 31.9542 108.43 32.3087 108.49 32.4016C108.696 32.7213 109.413 34.0371 110.238 35.6095C113.817 42.4285 115.738 48.7216 116.563 56.3204C116.776 58.2849 116.839 62.2073 116.679 63.566C116.553 64.6432 116.762 64.6215 117.147 63.5174C117.595 62.2353 118.493 58.5524 118.696 57.1651C119.683 50.416 118.247 42.6565 114.699 35.5533C112.097 30.3467 107.804 24.0186 103.356 18.8362C102.983 18.4017 102.424 17.7457 102.114 17.3784C98.3795 12.9563 91.6181 6.17416 87.5073 2.7267C86.9803 2.28479 86.3716 1.76173 86.1545 1.56441C85.6989 1.1503 84.7399 0.330984 84.4746 0.12939C84.2007 -0.0787317 83.9941 -0.0428259 83.5603 0.288436ZM83.7139 10.5972C83.1889 10.8949 79.9457 13.9411 76.5615 17.3153C72.5071 21.3574 71.4932 22.4812 68.3655 26.3976C66.0168 29.3386 65.3606 30.256 63.6069 33.0494C59.9085 38.9405 57.9158 44.531 57.3782 50.5236C57.0975 53.653 57.889 58.3635 59.1913 61.3139C62.089 67.878 67.6438 72.5714 74.6527 74.3774C79.8518 75.7171 86.2905 75.0464 91.2864 72.6447C95.5065 70.616 99.0859 66.9233 100.858 62.77C102.147 59.7501 102.622 57.3953 102.622 54.0285C102.622 49.7508 101.407 45.2188 98.9876 40.4682C97.3054 37.1652 93.6684 31.8203 91.0477 28.7997C90.9135 28.6449 90.4356 28.0878 89.9859 27.5616C87.7517 24.9474 84.9278 21.9246 84.2212 21.3909C84.0074 21.2294 83.9739 21.2599 81.5195 23.8569C74.1324 31.6731 69.1807 38.9976 66.7458 45.7103C65.5987 48.8725 65.0619 52.7583 65.3892 55.5288C65.541 56.8126 65.9226 58.3788 66.4165 59.7448C66.9719 61.2807 67.1428 61.3577 67.2463 60.1189C67.4411 57.7886 68.2808 53.9237 69.2579 50.8613C71.2224 44.704 75.0466 37.8301 79.8369 31.8462C80.5587 30.9445 81.2243 30.1307 81.316 30.0379C81.4076 29.945 81.7799 29.5145 82.1432 29.0811C83.5409 27.4142 83.8311 27.1113 84.0307 27.1113C84.264 27.1113 84.4199 27.2543 85.1389 28.1275C85.4178 28.4663 85.7005 28.7941 85.767 28.856C85.8336 28.9179 86.1891 29.3231 86.557 29.7565C86.9249 30.1898 87.2556 30.5697 87.2919 30.6006C87.4064 30.6982 90.3732 34.4525 90.8944 35.1593C91.1684 35.5307 91.8617 36.5438 92.4354 37.4105C93.0089 38.2772 93.5187 39.037 93.5683 39.0989C93.9606 39.5884 96.3311 44.3749 96.8562 45.7376C97.9062 48.463 98.44 50.9663 98.5267 53.5727C98.6029 55.8629 98.5033 56.7409 97.9312 58.8243C96.9934 62.2393 95.2737 64.9409 92.6779 67.0777C92.3468 67.3502 92.0505 67.6011 92.0195 67.6352C91.5588 68.1416 88.5031 69.6395 87.0004 70.0956C84.2187 70.9398 82.5791 71.1626 79.7255 71.0841C77.2178 71.0152 76.2564 70.8495 74.065 70.1085C71.3217 69.1809 69.0077 67.7409 66.9215 65.6629C64.6661 63.4164 62.8847 60.5066 62.1233 57.8255C61.4613 55.4943 61.3971 54.997 61.3979 52.212C61.3986 49.7388 61.4195 49.4682 61.7191 48.0473C62.9684 42.1249 65.6887 36.7312 70.9723 29.7002C72.1426 28.1428 74.6006 25.2122 76.116 23.5675C78.8546 20.595 83.7846 15.7428 84.066 15.7428C84.2958 15.7428 87.2407 18.6304 89.1744 20.7517C90.021 21.6803 90.7663 22.4967 90.8308 22.5658C92.2262 24.0625 92.7714 24.6699 93.4468 25.48C94.8672 27.1838 95.1971 27.5889 95.875 28.462C97.0132 29.9281 98.4288 31.8868 99.251 33.1332C100.819 35.5095 101.257 36.1961 101.657 36.904C101.885 37.3064 102.162 37.7876 102.274 37.9733C102.749 38.7636 103.039 39.3063 103.865 40.9571C104.872 42.9689 105.039 43.3529 106.059 46.0114C107.364 49.4162 107.936 51.4673 108.424 54.5008C108.87 57.2679 108.983 58.5589 108.981 60.8228C108.975 65.2358 108.097 69.0972 106.271 72.743C104.872 75.5377 103.785 77.0614 101.725 79.1207C99.2067 81.6367 96.2574 83.6083 93.091 84.892C90.2358 86.0496 87.9839 86.6601 84.9138 87.1092C82.5608 87.4534 78.6461 87.4531 76.3418 87.1086C71.5502 86.3922 67.33 85.0219 63.4233 82.914C62.0404 82.168 60.1713 80.9502 59.2327 80.1837C57.9399 79.128 57.392 78.7396 57.3103 78.8212C57.1128 79.0182 57.9054 79.9776 59.9241 81.9851C62.6358 84.6817 64.2368 85.83 67.4572 87.388C70.2479 88.7382 73.3549 89.6785 76.978 90.2696C78.8204 90.5702 83.7586 90.6917 85.7862 90.4864C89.9648 90.0632 94.1754 88.8997 97.4586 87.2607C101.721 85.1328 105.051 82.1921 107.71 78.2076C110.181 74.5054 111.709 70.614 112.569 65.8317C112.796 64.5676 112.822 64.0533 112.825 60.7665C112.83 56.1532 112.656 54.5846 111.682 50.4674C110.197 44.1932 107.44 38.0891 103.267 31.8388C100.803 28.1484 97.7557 24.1645 95.5175 21.7085C94.9815 21.1203 94.3686 20.4403 94.1554 20.1972C92.3018 18.0841 86.8046 12.6131 84.9548 11.0408C84.2259 10.4211 84.1024 10.377 83.7139 10.5972Z" fill="url(#paint0_radial_3122_1529)"/>
<defs>
<radialGradient id="paint0_radial_3122_1529" cx="0" cy="0" r="1" gradientUnits="userSpaceOnUse" gradientTransform="translate(83.9648 90.6102) rotate(-90) scale(86.1078 66.5379)">
<stop stop-color="#65DADF"/>
<stop offset="1" stop-color="#4F9FEE"/>
</radialGradient>
</defs>
</svg>
