<svg width="87" height="112" viewBox="0 0 87 112" fill="none" xmlns="http://www.w3.org/2000/svg">
<path id="image 2 (1) 1 (Traced)" fill-rule="evenodd" clip-rule="evenodd" d="M42.9535 0.356612C42.2962 0.855933 40.1357 2.63028 39.859 2.89831C39.7375 3.0159 39.3001 3.39387 38.887 3.7383C37.7395 4.6952 35.727 6.44825 34.4025 7.64478C33.7471 8.23692 32.4857 9.3693 31.5995 10.1611C25.4212 15.6822 16.5902 24.9711 14.0761 28.5932C13.9605 28.7599 13.3253 29.6077 12.6648 30.4772C11.5258 31.9765 10.1905 33.837 9.73052 34.5653C9.61487 34.7484 9.06297 35.6198 8.50393 36.5017C7.94489 37.3835 7.48762 38.1298 7.48762 38.1601C7.48762 38.1905 7.13422 38.834 6.70232 39.5901C3.58595 45.0459 1.94162 49.4025 0.681668 55.5425C0.168323 58.0446 0.00585312 59.9922 0.000105685 63.7181C-0.00634266 67.8237 0.28089 70.2436 1.24702 74.225C2.01045 77.3708 3.65716 81.5745 5.00402 83.8162C5.23757 84.205 5.50013 84.6484 5.58746 84.8014C5.7732 85.1271 6.86353 86.7467 7.52056 87.6734C8.3988 88.9115 10.3184 91.0476 11.6813 92.3028C12.0218 92.6164 12.4003 92.97 12.5224 93.0887C12.8365 93.3939 14.9046 95.0427 15.4079 95.3892C15.6392 95.5484 16.1438 95.8959 16.5293 96.1611C21.336 99.4692 28.1525 101.887 34.7497 102.624C37.4644 102.927 41.9992 102.836 44.7938 102.423C54.2698 101.022 61.4273 96.4169 65.5345 89.0777C66.7607 86.8867 68.7754 81.4071 68.5746 80.8094C68.5206 80.6484 67.5915 82.0108 67.0222 83.086C65.35 86.2437 60.9053 90.6643 56.9452 93.108C53.7786 95.062 48.9799 96.8568 45.1005 97.5382C39.8685 98.4571 34.0598 98.1339 29.0656 96.646C21.3773 94.3555 15.3978 90.1751 11.1281 84.1056C7.61939 79.1177 5.73507 73.9516 5.03472 67.3995C4.70347 64.3002 4.77048 62.5375 5.37859 58.3584C6.173 52.8999 8.02283 47.6982 11.2424 41.8693C15.515 34.134 23.494 24.4082 32.51 15.9462C33.8207 14.716 35.3662 13.2621 35.9444 12.7154C36.5227 12.1685 37.6897 11.136 38.5378 10.421C39.3859 9.7058 40.5844 8.67 41.2012 8.11933C43.07 6.45061 43.3319 6.24326 43.5705 6.24326C43.791 6.24326 45.2354 7.44285 47.1611 9.22499C47.6633 9.68994 48.8606 10.7904 49.8217 11.6707C53.8853 15.3925 57.538 18.9938 59.5695 21.2813C60.9743 22.8632 62.3857 24.4234 62.5205 24.5434C62.7248 24.7252 64.675 27.0426 65.7386 28.3672C66.1981 28.9395 66.6508 29.5032 66.7444 29.6196C66.9688 29.8988 67.663 30.8194 68.571 32.0422C69.5668 33.3832 72.7942 38.1379 73.3521 39.086C73.6 39.507 73.8635 39.9453 73.938 40.0602C74.1939 40.4554 75.0851 42.0822 76.1106 44.0263C80.5579 52.457 82.9462 60.2376 83.9706 69.6325C84.2355 72.0614 84.3142 76.9108 84.1158 78.5907C83.9587 79.9225 84.2179 79.8956 84.6973 78.5306C85.2541 76.9455 86.3699 72.392 86.622 70.6768C87.8483 62.3326 86.0646 52.739 81.654 43.9568C78.4211 37.5196 73.0848 29.6958 67.5569 23.2884C67.0935 22.7512 66.3989 21.9401 66.0134 21.4861C61.3717 16.0187 52.9682 7.63351 47.859 3.37119C47.2041 2.82483 46.4475 2.17813 46.1777 1.93418C45.6115 1.42219 44.4195 0.409217 44.0898 0.159974C43.7495 -0.097341 43.4927 -0.0529484 42.9535 0.356612ZM43.1444 13.102C42.4919 13.4701 38.4611 17.2363 34.255 21.408C29.216 26.4055 27.9558 27.7949 24.0686 32.637C21.1494 36.2732 20.3338 37.4074 18.1543 40.861C13.5578 48.1446 11.081 55.0565 10.4129 62.4656C10.064 66.3346 11.0478 72.1585 12.6663 75.8063C16.2677 83.9219 23.1715 89.7247 31.8827 91.9576C38.3443 93.6139 46.3467 92.7846 52.5559 89.8153C57.801 87.3071 62.2496 82.7415 64.4522 77.6065C66.0537 73.8729 66.6442 70.9614 66.6442 66.7989C66.6442 61.5101 65.1346 55.9069 62.1274 50.0334C60.0367 45.9497 55.5164 39.3415 52.2593 35.6069C52.0925 35.4156 51.4986 34.7267 50.9397 34.0761C48.1628 30.844 44.6531 27.1068 43.775 26.447C43.5092 26.2473 43.4676 26.285 40.4171 29.4958C31.236 39.1595 25.0818 48.2152 22.0555 56.5145C20.6298 60.4242 19.9626 65.2284 20.3694 68.6538C20.5581 70.241 21.0324 72.1774 21.6462 73.8663C22.3365 75.7652 22.5488 75.8604 22.6775 74.3288C22.9196 71.4477 23.9633 66.6693 25.1777 62.8831C27.6192 55.2704 32.3722 46.7718 38.3258 39.3735C39.223 38.2587 40.0502 37.2525 40.1642 37.1377C40.278 37.0229 40.7408 36.4906 41.1923 35.9548C42.9294 33.8939 43.2901 33.5194 43.5382 33.5194C43.8281 33.5194 44.0218 33.6962 44.9155 34.7758C45.2622 35.1947 45.6135 35.5999 45.6962 35.6765C45.7789 35.753 46.2207 36.254 46.678 36.7898C47.1353 37.3256 47.5463 37.7953 47.5914 37.8335C47.7337 37.9542 51.421 42.5959 52.0688 43.4697C52.4093 43.9289 53.271 45.1814 53.984 46.253C54.6968 47.3245 55.3304 48.2639 55.3921 48.3404C55.8796 48.9457 58.8258 54.8635 59.4784 56.5483C60.7835 59.9179 61.4468 63.0129 61.5546 66.2353C61.6494 69.0668 61.5256 70.1523 60.8145 72.7283C59.649 76.9504 57.5116 80.2906 54.2854 82.9325C53.8739 83.2694 53.5057 83.5796 53.4671 83.6218C52.8945 84.2479 49.0967 86.0997 47.229 86.6636C43.7718 87.7073 41.7341 87.9829 38.1873 87.8857C35.0707 87.8006 33.8758 87.5957 31.1522 86.6796C27.7427 85.5328 24.8667 83.7524 22.2738 81.1832C19.4707 78.4057 17.2567 74.8082 16.3104 71.4933C15.4876 68.6111 15.4079 67.9963 15.4088 64.5531C15.4097 61.4952 15.4356 61.1606 15.8081 59.404C17.3607 52.0817 20.7416 45.4131 27.3084 36.7202C28.763 34.7947 31.8179 31.1715 33.7013 29.138C37.105 25.4629 43.2323 19.4639 43.5821 19.4639C43.8676 19.4639 47.5278 23.034 49.931 25.6567C50.9832 26.8048 51.9096 27.8141 51.9897 27.8996C53.7239 29.75 54.4016 30.501 55.241 31.5025C57.0064 33.6091 57.4165 34.1099 58.2589 35.1894C59.6735 37.002 61.4329 39.4236 62.4549 40.9647C64.4031 43.9026 64.9476 44.7515 65.4453 45.6267C65.7282 46.1242 66.0732 46.7192 66.212 46.9488C66.8024 47.9259 67.1621 48.5969 68.1893 50.6379C69.4412 53.1252 69.6484 53.6 70.9156 56.8868C72.5385 61.0964 73.2491 63.6323 73.8561 67.3828C74.4097 70.8039 74.5508 72.4001 74.5473 75.1991C74.5402 80.6552 73.4494 85.4292 71.18 89.9367C69.4404 93.3921 68.0903 95.2759 65.529 97.8219C62.3998 100.933 58.7342 103.37 54.7988 104.957C51.2502 106.389 48.4514 107.143 44.6357 107.699C41.7112 108.124 36.8458 108.124 33.9819 107.698C28.0267 106.812 22.7816 105.118 17.9261 102.512C16.2073 101.59 13.8844 100.084 12.7178 99.1362C11.111 97.831 10.43 97.3507 10.3285 97.4516C10.0831 97.6953 11.0681 98.8814 13.5771 101.363C16.9473 104.697 18.9372 106.117 22.9397 108.043C26.408 109.713 30.2696 110.875 34.7727 111.606C37.0625 111.978 43.2 112.128 45.72 111.874C50.9134 111.351 56.1466 109.912 60.2271 107.886C65.5246 105.255 69.6634 101.619 72.9683 96.693C76.0391 92.1158 77.9378 87.3046 79.0066 81.3919C79.2891 79.829 79.3215 79.1931 79.3258 75.1295C79.3319 69.4258 79.1154 67.4864 77.9045 62.396C76.0595 54.6389 72.6326 47.092 67.4463 39.3643C64.3842 34.8017 60.5963 29.8761 57.8146 26.8396C57.1484 26.1124 56.3867 25.2716 56.1217 24.9711C53.818 22.3585 46.9857 15.5944 44.6867 13.6504C43.7807 12.8843 43.6272 12.8298 43.1444 13.102Z" fill="url(#paint0_radial_2437_3535)"/>
<defs>
<radialGradient id="paint0_radial_2437_3535" cx="0" cy="0" r="1" gradientUnits="userSpaceOnUse" gradientTransform="translate(43.4562 112.027) rotate(-90) scale(106.461 82.6971)">
<stop stop-color="#65DADF"/>
<stop offset="1" stop-color="#4F9FEE"/>
</radialGradient>
</defs>
</svg>
